# xmcd
#
# Track frame offsets: 
#        150
#        13287
#        25445
#        37610
#        50785
#        64072
#        75930
#        86415
#        100675
#        116572
#        131337
#        142795
#        154422
#        167602
#        182240
#        198672
#        211760
#        229455
#        242875
#        257272
#        270157
#        287445
#        304905
#        319607
#
# Disc length: 4509 seconds
#
# Revision: 3
# Processed by: cddbd v1.5.2PL0 Copyright (c) Steve Scherf et al.
# Submitted via: ExactAudioCopy v1.0b3
#
DISCID=3d119b18
DTITLE=Various Artist - Country Ballads [Disk 1]
DYEAR=2003
DGENRE=Country
TTITLE0=Parton, Dolly - I Will Always Love You
TTITLE1=Cline, Patsy - Crazy
TTITLE2=Rich, Charlie - The Most Beautiful Girl
TTITLE3=Campbell, Glen - Honey Come Back
TTITLE4=Young, Faron - It's Four In The Morning
TTITLE5=Wynette, Tammy - Stand By Your Man
TTITLE6=Everly Brothers, The - All I Have To Do Is Dream
TTITLE7=Dr. Hook - If Not You
TTITLE8=Nelson, Willie - Always On My Mind
TTITLE9=Dylan, Bob - Lay Lady Lay
TTITLE10=Cash, Johnny - A Thing Called Love
TTITLE11=Orbison, Roy - Dream Baby
TTITLE12=Campbell, Glen - Gentle On My Mind
TTITLE13=Spears, Billie Jo - (Hey Won't You Play) Another Somebody Don
TTITLE13=e Somebody Wrong Song
TTITLE14=Rogers, Kenny - Lucille
TTITLE15=Gayle, Crystal - Talking In Your Sleep
TTITLE16=Greenwood, Lee - The Wind Beneath My Wings
TTITLE17=Davis, Mac - Baby Don't Get Hooked On Me
TTITLE18=Bellamy Brothers - If I Said You Had A Beautiful Body Would Y
TTITLE18=ou Hold It Against Me
TTITLE19=Newton-John, Olivia - If Not For You
TTITLE20=Rogers, Kenny and Sheena Easton - We've Got Tonight
TTITLE21=Judds, The - Love Can Build A Bridge
TTITLE22=Brooks and Dunn - The Long Goodbye
TTITLE23=Rimes, LeAnn - How Do I Live
EXTD=CDDBSort:various,country_ballads_greatest_country_love_songs_in_w
EXTD=orld_ever_disk_1_of_2 - YEAR: 2003
EXTT0=
EXTT1=
EXTT2=
EXTT3=
EXTT4=
EXTT5=
EXTT6=
EXTT7=
EXTT8=
EXTT9=
EXTT10=
EXTT11=
EXTT12=
EXTT13=
EXTT14=
EXTT15=
EXTT16=
EXTT17=
EXTT18=
EXTT19=
EXTT20=
EXTT21=
EXTT22=
EXTT23=
PLAYORDER=
